<svg width="17" height="16" viewBox="0 0 17 16" fill="none" xmlns="http://www.w3.org/2000/svg">
<g id="SVG">
<path id="Vector" d="M8.88233 14C10.2123 13.9999 11.5046 13.5581 12.5563 12.744C13.6081 11.9299 14.3596 10.7895 14.693 9.502M8.88233 14C7.55233 13.9999 6.26002 13.5581 5.20831 12.744C4.1566 11.9299 3.40505 10.7895 3.07166 9.502M8.88233 14C10.539 14 11.8823 11.3133 11.8823 8C11.8823 4.68667 10.539 2 8.88233 2M8.88233 14C7.22566 14 5.88233 11.3133 5.88233 8C5.88233 4.68667 7.22566 2 8.88233 2M14.693 9.502C14.8163 9.022 14.8823 8.51867 14.8823 8C14.884 6.96807 14.6182 5.95333 14.111 5.05467M14.693 9.502C12.9151 10.4876 10.9151 11.0032 8.88233 11C6.77433 11 4.79366 10.4567 3.07166 9.502M3.07166 9.502C2.94549 9.01132 2.88188 8.50665 2.88233 8C2.88233 6.93 3.16233 5.92467 3.65366 5.05467M8.88233 2C9.94649 1.99956 10.9916 2.28224 11.9105 2.81904C12.8293 3.35585 13.5888 4.12744 14.111 5.05467M8.88233 2C7.81817 1.99956 6.77305 2.28224 5.8542 2.81904C4.93535 3.35585 4.17586 4.12744 3.65366 5.05467M14.111 5.05467C12.6594 6.31195 10.8027 7.00276 8.88233 7C6.88366 7 5.05566 6.26667 3.65366 5.05467" stroke="#F9F9FF" stroke-linecap="round" stroke-linejoin="round"/>
</g>
</svg>
